<svg xmlns="http://www.w3.org/2000/svg" viewBox="0 0 64 64" role="img" aria-label="Wikinger">
  <!-- Eigene Gestaltung, keine Anlehnung an geschützte Comicfiguren. -->
  <circle cx="32" cy="32" r="32" fill="#1a1d27"/>

  <!-- Hörner -->
  <path d="M17 25c-5-1-9-5-10-10 5 0 10 2 12 6z" fill="#e8e2d4"/>
  <path d="M47 25c5-1 9-5 10-10-5 0-10 2-12 6z" fill="#e8e2d4"/>

  <!-- Helm -->
  <path d="M16 28a16 16 0 0 1 32 0v3H16z" fill="#8f5cf0"/>
  <path d="M16 28a16 16 0 0 1 32 0v3H16z" fill="none" stroke="#6f42d6" stroke-width="1.5"/>
  <!-- Nasenschutz -->
  <rect x="30" y="28" width="4" height="12" rx="1.6" fill="#b58cff"/>

  <!-- Gesicht -->
  <path d="M20 31h24v7a12 12 0 0 1-24 0z" fill="#f0c9a4"/>

  <!-- Augen -->
  <circle cx="26" cy="36" r="2" fill="#1a1d27"/>
  <circle cx="38" cy="36" r="2" fill="#1a1d27"/>

  <!-- Bart -->
  <path d="M20 40c0 10 5 18 12 18s12-8 12-18c-3 3-7 4-12 4s-9-1-12-4z" fill="#d9803f"/>
  <path d="M27 44c2 1 3 4 3 7M37 44c-2 1-3 4-3 7" stroke="#b9662c" stroke-width="1.6"
        stroke-linecap="round" fill="none"/>
</svg>
